{"title":"The.Phantom.Of.The.Opera.At.The.Royal.Albert.Hall.2011.BDRip.Xvi","uid":6879901,"size":1473008389,"categoryP":"video","categoryS":"movies","magnet":"?xt=urn:btih:9e3a5c669a31ca0cfd562dcd1b6df83cd66dad19&amp;dn=The.Phantom.Of.The.Opera.At.The.Royal.Albert.Hall.2011.BDRip.Xvi&amp;tr=udp%3A%2F%2Ftracker.openbittorrent.com%3A80&amp;tr=udp%3A%2F%2Fopen.demonii.com%3A1337&amp;tr=udp%3A%2F%2Ftracker.coppersurfer.tk%3A6969&amp;tr=udp%3A%2F%2Fexodus.desync.com%3A6969","seeders":11,"leechers":3,"uploader":"LegendET","files":8,"time":1323617191,"description":"[center][img]http://pixhost.me/avaxhome/7d/45/001f457d_medium.jpeg[/img]\n\nARTiCHOKE\n\nSPRiNTER proudly presents\n\nThe.Phantom.Of.The.Opera.At.The.Royal.Albert.Hall.2011.BDRip.XviD-SPRiNTER\n\nDate: 2011.12 &lt;a href=&quot;\nhttp://www.imdb.com/title/tt2077886/&quot; rel=&quot;nofollow&quot; target=&quot;_NEW&quot;&gt;\nhttp://www.imdb.com/title/tt2077886/&lt;/a&gt;\n\nGenre: Drama Musical\nSubtitles: English\n\nRelease notes\n\nEnjoy!\n\nNews\n\nWe are currently looking for:\n\nSuppliers who can provide pre-retail or retail dvds with decent upload!\n50Mbit+ dump providers with 1TB+ free space\n\n&lt;a class=&quot;__cf_email__&quot; href=&quot;/cdn-cgi/l/email-protection&quot; data-cfemail=&quot;087b787a61667c6d7a48607d7b60266b6765&quot;&gt;[email&amp;#160;protected]&lt;/a&gt;&lt;script cf-hash='f9e31' type=&quot;text/javascript&quot;&gt;\n/* &lt;![CDATA[ */!function(){try{var t=&quot;currentScript&quot;in document?document.currentScript:function(){for(var t=document.getElementsByTagName(&quot;script&quot;),e=t.length;e--;)if(t[e].getAttribute(&quot;cf-hash&quot;))return t[e]}();if(t&amp;&amp;t.previousSibling){var e,r,n,i,c=t.previousSibling,a=c.getAttribute(&quot;data-cfemail&quot;);if(a){for(e=&quot;&quot;,r=parseInt(a.substr(0,2),16),n=2;a.length-n;n+=2)i=parseInt(a.substr(n,2),16)^r,e+=String.fromCharCode(i);e=document.createTextNode(e),c.parentNode.replaceChild(e,c)}}}catch(u){}}();/* ]]&gt; */&lt;/script&gt;\n\nGreetings\n\nNTX FiCO HNR CiNEFiLE AEN HUMANiSM TASTE 0MNiDVD\n\nDetails\n\nFormat: AVI\nFormat/Info: Audio Video Interleave\nFile size: 1.37 GiB\nDuration: 2h 39mn\nOverall bit rate mode: Variable\nOverall bit rate: 1 225 Kbps\nWriting application: VirtualDubMod 1.5.10.2 (build 2540/release)\nWriting library: VirtualDubMod build 2540/release\n\nVideo\nID: 0\nFormat: MPEG-4 Visual\nFormat profile: Advanced Simple@L5\nFormat settings, BVOP: 2\nFormat settings, QPel: No\nFormat settings, GMC: No warppoints\nFormat settings, Matrix: Default (H.263)\nCodec ID: XVID\nCodec ID/Hint: XviD\nDuration: 2h 39mn\nBit rate: 1 072 Kbps\nWidth: 624 pixels\nHeight: 352 pixels\nDisplay aspect ratio: 16:9\nFrame rate: 23.976 fps\nColor space: YUV\nChroma subsampling: 4:2:0\nBit depth: 8 bits\nScan type: Progressive\nCompression mode: Lossy\nBits/(Pixel*Frame): 0.204\nStream size: 1.20 GiB (87%)\nWriting library: XviD 61\n\nAudio\nID: 1\nFormat: MPEG Audio\nFormat version: Version 1\nFormat profile: Layer 3\nMode: Joint stereo\nMode extension: MS Stereo\nCodec ID: 55\nCodec ID/Hint: MP3\nDuration: 2h 39mn\nBit rate mode: Variable\nBit rate: 141 Kbps\nMinimum bit rate: 128 Kbps\nChannel(s): 2 channels\nSampling rate: 48.0 KHz\nCompression mode: Lossy\nStream size: 161 MiB (11%)\nAlignment: Aligned on interleaves\nInterleave, duration: 24 ms (0.58 video frame)\nInterleave, preload duration: 131 ms\nWriting library: LAME3.95\nEncoding settings: -m j -V 4 -q 3 -lowpass 18 --vbr-old -b 128\n\n","torrent":{"xt":"urn:btih:9e3a5c669a31ca0cfd562dcd1b6df83cd66dad19","amp;dn":"The.Phantom.Of.The.Opera.At.The.Royal.Albert.Hall.2011.BDRip.Xvi","amp;tr":["udp%3A%2F%2Ftracker.openbittorrent.com%3A80","udp%3A%2F%2Fopen.demonii.com%3A1337","udp%3A%2F%2Ftracker.coppersurfer.tk%3A6969","udp%3A%2F%2Fexodus.desync.com%3A6969"],"infoHash":"9e3a5c669a31ca0cfd562dcd1b6df83cd66dad19","infoHashBuffer":{"type":"Buffer","data":[158,58,92,102,154,49,202,12,253,86,45,205,27,109,248,60,214,109,173,25]},"announce":[],"urlList":[]}}